<?xml version="1.0" encoding="UTF-8"?>
<svg version="1.1" xmlns="http://www.w3.org/2000/svg" width="1024" height="1024">
<path d="M0 0 C337.92 0 675.84 0 1024 0 C1024 337.92 1024 675.84 1024 1024 C686.08 1024 348.16 1024 0 1024 C0 686.08 0 348.16 0 0 Z " fill="#222022" transform="translate(0,0)"/>
<path d="M0 0 C4.67408977 4.2066808 6.46748054 9.23909524 8.77734375 14.99609375 C17.66225559 36.82515829 37.95186028 52.2782354 58.8984375 61.859375 C62.56040978 63.37413539 66.24185819 64.74885627 70 66 C70.7110791 66.23976563 71.4221582 66.47953125 72.15478516 66.7265625 C84.94885058 71.62868934 84.94885058 71.62868934 97.85546875 70.078125 C99.16756554 69.24487591 100.46105686 68.38187019 101.73828125 67.49609375 C119.66086797 55.64056575 139.78389453 55.38117118 160.48046875 55.43359375 C163.02663905 55.42834441 165.5728074 55.42206319 168.11897278 55.41481018 C173.43334162 55.40445673 178.74743174 55.40855383 184.06176758 55.42358398 C190.14165343 55.4404609 196.22081883 55.42470345 202.30062598 55.3923611 C208.22360853 55.36208608 214.1463197 55.36055457 220.06936073 55.3698597 C222.55479174 55.3706698 225.04023876 55.36399025 227.52562523 55.34908867 C248.15355317 55.24436822 271.17169598 55.99379884 288.0625 69.4375 C294.08068836 72.63866402 301.60402824 70.27013226 307.8671875 68.3984375 C309.87525537 67.74040327 311.8778501 67.06546207 313.875 66.375 C314.92856689 66.015271 315.98213379 65.65554199 317.06762695 65.28491211 C324.88663892 62.54297684 331.98962322 59.46289013 339 55 C340.04671875 54.35804688 341.0934375 53.71609375 342.171875 53.0546875 C360.19068895 41.37263348 370.85926191 26.80295614 378.578125 6.9609375 C380.04660991 3.90293871 381.33742787 2.0883915 384 0 C387.5 -0.0625 387.5 -0.0625 391 1 C394.12555248 4.34582952 395.96610316 7.71817716 397.6875 11.9375 C398.31205078 13.43603516 398.31205078 13.43603516 398.94921875 14.96484375 C403.74442962 28.81569449 401.82770363 47.4400634 396.1875 60.75 C395.47072251 62.17297523 394.74112583 63.58955292 394 65 C393.63777344 65.81210937 393.27554687 66.62421875 392.90234375 67.4609375 C380.11703843 94.12631435 350.84285305 109.07979422 324.51171875 119.15234375 C322 120 322 120 320 120 C320.61488281 121.7015625 320.61488281 121.7015625 321.2421875 123.4375 C321.78665782 124.95826193 322.33091739 126.47909932 322.875 128 C323.14441406 128.74378906 323.41382813 129.48757813 323.69140625 130.25390625 C325.89073428 136.42275315 328 142.38855344 328 149 C335.54915861 145.92129286 341.30814976 142.17419699 347.3125 136.75 C361.18213897 124.25271029 376.38318421 114.36069792 395 111 C395.88429688 110.81695312 396.76859375 110.63390625 397.6796875 110.4453125 C424.37986354 106.86434771 448.72673746 113.34617975 471 128 C471.83789062 128.53882813 472.67578125 129.07765625 473.5390625 129.6328125 C475.5 131.0625 475.5 131.0625 478 134 C479.02010838 146.03727892 468.26205887 157.25545763 461 166 C460.57058105 166.51739746 460.14116211 167.03479492 459.69873047 167.56787109 C447.45936562 182.08454149 432.46739814 192.61903928 415 200 C414.27683594 200.31066406 413.55367187 200.62132812 412.80859375 200.94140625 C398.25354682 206.83748201 377.27014217 205.9682341 363 200 C357.52387211 197.49959639 352.10585015 194.88467243 346.74121094 192.15332031 C345.71286133 191.63479492 344.68451172 191.11626953 343.625 190.58203125 C342.70976563 190.10999268 341.79453125 189.6379541 340.8515625 189.15161133 C337.57089248 187.82670375 334.50670101 187.37715526 331 187 C330.6142314 191.36333432 330.6142314 191.36333432 330.22898865 195.72671509 C329.88937713 199.57553856 329.54837053 203.42422983 329.20483398 207.27270508 C328.60263754 214.03636887 328.00283692 220.79867453 327.49609375 227.5703125 C326.77620532 237.05836157 325.7675402 246.42557133 324.1875 255.8125 C324.04642822 256.67061279 323.90535645 257.52872559 323.76000977 258.4128418 C320.9468219 274.11404768 315.67573654 289.18231212 310.49591064 304.22332764 C304.8606864 320.64204405 299.58731712 336.78187463 297 354 C296.8040625 355.11246094 296.608125 356.22492188 296.40625 357.37109375 C295.83402542 362.48259986 295.85574026 367.54836032 295.875 372.6875 C295.87113281 373.70005859 295.86726563 374.71261719 295.86328125 375.75585938 C295.869745 380.83313745 296.02902777 385.83753185 296.4921875 390.89453125 C297.10173231 397.59897701 297.22061417 404.27064532 297.25 411 C297.2809375 412.77117187 297.2809375 412.77117187 297.3125 414.578125 C297.364434 426.36714263 295.85302556 437.95438355 287.33203125 446.71484375 C280.64674063 452.75079046 274.64924526 454.75362769 265.65625 454.63671875 C256.11547263 453.72473268 246.85208933 449.47023129 238 446 C241.24990805 444.29436219 244.14496328 443.47847892 247.75 442.75 C255.60737329 440.85273182 261.58250474 436.87165929 266 430 C272.82836741 415.73416199 272.70154966 398.87043169 268 384 C264.14360416 374.96466232 257.99059796 369.8649729 249.625 365.0625 C242.32904157 362.92402943 235.25108649 363.66359994 228.04174805 365.77978516 C205.4878971 372.33161778 179.81221675 370.71796113 157.27734375 365.09375 C147.89995689 362.88494741 139.50871606 363.31656997 131 368 C121.86842797 374.01651335 118.10962376 382.57414158 115.734375 393.0078125 C113.15575615 405.94493193 114.98697502 419.11565992 121.4921875 430.64453125 C128.757268 440.78929392 138.25751429 442.91626036 150 445 C147.3259421 446.78270527 145.55303207 447.57220467 142.54296875 448.47265625 C141.67736328 448.73240234 140.81175781 448.99214844 139.91992188 449.25976562 C139.01822266 449.52466797 138.11652344 449.78957031 137.1875 450.0625 C136.29740234 450.33126953 135.40730469 450.60003906 134.49023438 450.87695312 C125.03544098 453.6874588 115.2680323 456.26768831 105.875 452.0625 C97.48598933 447.3535742 92.71221744 440.79523236 89.69140625 431.7734375 C88.12753873 425.50029659 87.80738688 419.36405803 87.8125 412.9375 C87.81185547 412.07261963 87.81121094 411.20773926 87.81054688 410.31665039 C87.86187526 403.81136051 88.34273923 397.40684018 89 390.9375 C92.26541517 357.99877431 85.9613856 330.0333243 74.40234375 299.3828125 C73.99669189 298.30314209 73.59104004 297.22347168 73.1730957 296.11108398 C72.43148309 294.14430573 71.68344658 292.17992722 70.92651367 290.21899414 C62.89670243 268.99527553 59.89330713 246.6316646 58.16864014 224.14379883 C57.85294634 220.13061432 57.50418392 216.12021189 57.16015625 212.109375 C56.41717045 203.40806872 55.7009807 194.70478281 55 186 C48.46112712 187.7310259 42.84055969 189.92916155 37 193.3125 C18.43454495 203.61822199 -2.71433417 208.25815893 -23.81640625 204.0078125 C-36.45988087 200.00533833 -47.93406479 193.59140359 -58 185 C-58.81082031 184.31550781 -59.62164062 183.63101563 -60.45703125 182.92578125 C-63.03199909 180.67528432 -65.51970151 178.35448624 -68 176 C-68.80872559 175.24807373 -68.80872559 175.24807373 -69.63378906 174.48095703 C-80.12440582 164.68444305 -90.13771463 153.7737649 -95 140 C-94.7705337 136.49158108 -93.95326804 135.95215537 -91.375 133.3125 C-69.05172886 115.24345881 -41.24714106 107.51676567 -12.81689453 110.20654297 C8.21663884 112.80079318 23.22842046 123.73989577 38.57885742 137.36645508 C44.38526101 142.46817207 50.58256978 147.52752326 58 150 C58.10441406 149.21882812 58.20882812 148.43765625 58.31640625 147.6328125 C59.19998947 142.93719884 60.55101451 138.44341983 61.9375 133.875 C62.20240234 132.98167969 62.46730469 132.08835937 62.74023438 131.16796875 C62.99998047 130.30558594 63.25972656 129.44320312 63.52734375 128.5546875 C63.76187256 127.77593262 63.99640137 126.99717773 64.23803711 126.19482422 C64.99455993 124.01567005 65.92193472 122.03669983 67 120 C66.31679688 119.88785156 65.63359375 119.77570313 64.9296875 119.66015625 C47.36789766 115.70289961 31.52561793 105.46073519 18 94 C17.10539062 93.25878906 16.21078125 92.51757812 15.2890625 91.75390625 C-0.30133308 78.35206777 -13.908705 60.19523025 -16.31787109 39.234375 C-17.19085851 26.35726086 -16.88342339 13.75107799 -8.5625 3.25 C-5.83329374 0.13452557 -4.14637526 -0.58568382 0 0 Z " fill="#FDFDFD" transform="translate(313,329)"/>
<path d="M0 0 C2.5921538 2.31639275 5.00457069 4.70725278 7.4375 7.1875 C25.74793385 25.82735695 52.66105291 43.2831277 79.5390625 43.7578125 C81.21354162 43.76044533 82.88803664 43.75772829 84.5625 43.75 C85.408125 43.75386719 86.25375 43.75773438 87.125 43.76171875 C87.94226563 43.76042969 88.75953125 43.75914062 89.6015625 43.7578125 C90.70685303 43.75612061 90.70685303 43.75612061 91.83447266 43.75439453 C93.98441842 43.62211322 95.86423061 43.19135518 97.9375 42.625 C106.81291861 41.57169157 114.33168384 44.27154873 121.3125 49.75 C126.60282116 54.76188321 129.03851113 61.01832666 129.4375 68.25 C129.25865604 72.29902718 127.96913129 75.24936041 125.91015625 78.703125 C124.6781619 81.1374271 124.09642829 82.88246829 123.9375 85.625 C125.32901873 88.51696172 125.32901873 88.51696172 127.4375 91.4375 C134.81465922 102.71199571 139.33894088 114.85445727 142.87109375 127.8046875 C143.71310631 130.82112812 144.67996072 133.68861315 145.75 136.625 C147.113594 141.18870478 147.3229713 145.70431393 147.4375 150.4375 C147.4835437 151.53288086 147.4835437 151.53288086 147.53051758 152.65039062 C147.53187986 156.5919144 147.08971633 158.42821348 144.65625 161.57421875 C139.34581136 165.57993755 133.39025104 165.20936904 126.9375 164.625 C116.38034623 162.21939856 105.74718977 157.22361707 97.9375 149.625 C97.9375 148.965 97.9375 148.305 97.9375 147.625 C97.2775 147.625 96.6175 147.625 95.9375 147.625 C94.33088509 145.70324139 92.87751014 143.79286278 91.4375 141.75 C91.00115234 141.13809814 90.56480469 140.52619629 90.11523438 139.89575195 C86.00333524 133.98599993 82.52959542 127.76201092 79.16210938 121.40478516 C78.76830078 120.66663574 78.37449219 119.92848633 77.96875 119.16796875 C77.62392578 118.50821045 77.27910156 117.84845215 76.92382812 117.16870117 C76.00992687 115.44749427 76.00992687 115.44749427 73.9375 114.625 C70.41207678 125.20126967 74.07055789 137.05784934 78.625 146.75 C87.45507499 163.32803294 101.03713454 171.64441427 117.9375 178.625 C118.80757378 192.60418546 116.21403188 204.60522723 106.9375 215.625 C98.13599184 224.48689586 98.13599184 224.48689586 92.67578125 224.72265625 C91.87527344 224.71105469 91.07476562 224.69945312 90.25 224.6875 C89.44175781 224.67847656 88.63351562 224.66945313 87.80078125 224.66015625 C86.87845703 224.64275391 86.87845703 224.64275391 85.9375 224.625 C85.875625 225.57375 85.81375 226.5225 85.75 227.5 C84.17945354 237.77054726 77.68242123 245.14115658 69.9375 251.625 C67.36358724 253.37487289 64.86105211 254.57452215 61.9375 255.625 C61.15632812 255.92019531 60.37515625 256.21539063 59.5703125 256.51953125 C50.9652826 259.45489192 43.85978217 259.15514204 35.0625 257.125 C12.16572111 252.07786057 -5.21759439 264.70776209 -24.0625 276.625 C-28.09032617 279.2561047 -32.075981 281.94800294 -36.05834961 284.6472168 C-50.45193556 294.34635004 -64.66248321 299.311687 -82.11962891 296.26611328 C-92.7734183 293.74436051 -101.83659175 287.39437226 -108.25 278.5625 C-109.1471875 277.1084375 -109.1471875 277.1084375 -110.0625 275.625 C-109.32128906 275.6971875 -108.58007812 275.769375 -107.81640625 275.84375 C-87.39002769 277.64387149 -69.37007216 276.89971413 -51.27734375 265.9375 C-49.0625 264.625 -49.0625 264.625 -47.0625 264.625 C-47.7225 263.305 -48.3825 261.985 -49.0625 260.625 C-52.98358692 261.26415153 -56.30328192 262.47193962 -59.9375 264.0625 C-68.06182164 267.61556495 -75.00604354 268.98778577 -83.8125 269 C-84.75738281 269.02449219 -85.70226562 269.04898437 -86.67578125 269.07421875 C-88.03509766 269.08001953 -88.03509766 269.08001953 -89.421875 269.0859375 C-90.24139648 269.09415527 -91.06091797 269.10237305 -91.90527344 269.11083984 C-94.0625 268.625 -94.0625 268.625 -95.77832031 266.72900391 C-99.63536839 260.40960461 -99.95465287 254.37065348 -98.59765625 247.15234375 C-96.69497814 240.40853198 -93.24184471 237.42123995 -87.296875 234.0625 C-85.35956375 233.00762895 -83.41201643 231.97126602 -81.453125 230.95703125 C-78.97322463 229.71807208 -78.97322463 229.71807208 -77.0625 227.625 C-76.64583333 224.625 -76.64583333 224.625 -77.0625 221.625 C-81.14893128 218.90071248 -84.26356251 219.00333669 -89.0625 219.625 C-93.62426783 221.07817399 -97.41811894 223.16649809 -101.3125 225.9375 C-104.0625 227.625 -104.0625 227.625 -106.5 227.5625 C-108.55284003 226.81146097 -110.56646083 225.95358891 -112.5625 225.0625 C-115.79675051 223.73414711 -117.64166601 223.22254894 -121.0625 223.625 C-121.3925 223.955 -121.7225 224.285 -122.0625 224.625 C-121.69541809 230.74303179 -119.93226957 235.97546856 -115.3828125 240.17578125 C-108.27430952 246.81140098 -107.27742651 256.33758756 -106.0625 265.625 C-106.0625 266.615 -106.0625 267.605 -106.0625 268.625 C-109.69755351 269.15511197 -111.89579581 269.2853986 -115.1328125 267.453125 C-123.58968692 260.70048763 -126.50303704 251.43912038 -127.78125 240.9921875 C-129.37442627 221.91832711 -125.43007461 204.49006917 -119.0625 186.625 C-118.64315186 185.44268799 -118.22380371 184.26037598 -117.79174805 183.04223633 C-114.25750314 173.25578157 -110.08633502 163.89669666 -105.5 154.5625 C-104.98117752 153.49906876 -104.98117752 153.49906876 -104.45187378 152.41415405 C-96.15936336 135.43839162 -87.17716314 118.89146674 -76.671875 103.171875 C-74.93974399 100.65581072 -74.93974399 100.65581072 -74.0625 97.625 C-75.3309375 97.5321875 -75.3309375 97.5321875 -76.625 97.4375 C-82.28341753 96.10005586 -85.80824842 93.2182385 -89.375 88.6875 C-92.84448363 82.39102971 -93.93457954 76.7561821 -93.0625 69.625 C-91.61995756 64.73590407 -89.5383439 61.82442777 -85.375 58.9375 C-82.78702257 56.92280871 -82.13603128 56.07802744 -81.6015625 52.78515625 C-81.53240876 50.54829861 -81.46747022 48.31130758 -81.40625 46.07421875 C-80.5537258 37.5199134 -75.56199482 30.11429773 -69.34765625 24.37890625 C-61.13464856 18.07524736 -54.04239247 15.4450189 -43.8125 15.5625 C-42.69488281 15.56926758 -42.69488281 15.56926758 -41.5546875 15.57617188 C-39.7239236 15.58790754 -37.89320127 15.6058415 -36.0625 15.625 C-35.81371094 14.88378906 -35.56492187 14.14257812 -35.30859375 13.37890625 C-32.38514246 6.91798726 -26.11775662 2.71739901 -19.6875 0.125 C-13.08369679 -1.94968712 -6.45014634 -2.89598407 0 0 Z " fill="#FDFDFD" transform="translate(223.0625,507.375)"/>
<path d="M0 0 C11.37616635 9.50709637 21.76295661 21.17954523 23.78515625 36.421875 C24.32492105 47.03162682 20.0890185 56.94540841 13.47265625 65.06640625 C8.24412378 70.28245136 2.40547256 74.16561414 -3.90234375 77.94140625 C-11.17617945 82.42370342 -17.54856041 86.91744881 -23.52734375 93.06640625 C-24.21699219 93.72382812 -24.90664063 94.38125 -25.6171875 95.05859375 C-36.45129361 106.07985333 -41.86177377 120.76100198 -41.96484375 136.00390625 C-42.01415039 137.23850586 -42.01415039 137.23850586 -42.06445312 138.49804688 C-42.18095523 152.57361957 -36.02566688 166.0069938 -30.25259399 178.56704712 C-28.56697378 182.23878442 -26.92145263 185.92845519 -25.2734375 189.6171875 C-24.94828659 190.34332748 -24.62313568 191.06946747 -24.28813171 191.81761169 C-8.73296611 226.69472113 -8.73296611 226.69472113 -7.52734375 242.06640625 C-39.42824875 240.53270889 -70.86924333 222.62484341 -92.52734375 200.06640625 C-93.52597628 199.06504065 -94.5257666 198.06482661 -95.52734375 197.06640625 C-95.61298584 197.66590088 -95.69862793 198.26539551 -95.78686523 198.88305664 C-96.44905599 203.51839193 -97.11124674 208.15372721 -97.7734375 212.7890625 C-97.90290771 213.70373291 -98.03237793 214.61840332 -98.16577148 215.56079102 C-98.45652489 217.57564733 -98.76960609 219.58727536 -99.08984375 221.59765625 C-99.67360098 226.22601714 -99.88526078 230.84545136 -100.08984375 235.50390625 C-100.13302734 236.42623047 -100.17621094 237.34855469 -100.22070312 238.29882812 C-100.32589306 240.55456788 -100.42803482 242.81040124 -100.52734375 245.06640625 C-124.95810581 241.97816224 -146.18097533 229.47712112 -161.5859375 210.53515625 C-166.26113549 204.12107616 -169.89689611 197.10660563 -173.52734375 190.06640625 C-178.9909096 192.24628269 -184.44957593 194.43777178 -189.90234375 196.64453125 C-192.11066208 197.53519345 -194.31899559 198.42581801 -196.52734375 199.31640625 C-197.65785156 199.7753125 -198.78835938 200.23421875 -199.953125 200.70703125 C-201.02949219 201.14015625 -202.10585938 201.57328125 -203.21484375 202.01953125 C-204.67470703 202.60976074 -204.67470703 202.60976074 -206.1640625 203.21191406 C-208.52734375 204.06640625 -208.52734375 204.06640625 -210.52734375 204.06640625 C-202.46100943 139.39665699 -168.89385193 66.199477 -122.52734375 20.06640625 C-121.68945312 19.22851562 -120.8515625 18.390625 -119.98828125 17.52734375 C-89.64733718 -11.19000465 -36.60374786 -27.5569679 0 0 Z " fill="#FDFDFD" transform="translate(832.52734375,621.93359375)"/>
<path d="M0 0 C11.65143159 10.59221054 20.29365877 26.92919059 21.14794922 42.73779297 C21.24932569 45.90971641 21.29576852 49.07651685 21.3125 52.25 C21.31813965 53.28036377 21.3237793 54.31072754 21.32958984 55.37231445 C21.2448772 64.24775831 19.75643196 71.05996641 15.6875 79.0625 C15.11386719 80.20847656 14.54023437 81.35445313 13.94921875 82.53515625 C12.48333127 85.14085203 11.2817924 86.85353387 9.40869141 89.05859375 C6.10416962 93.66223661 6.36210764 98.03026675 6.51171875 103.52734375 C6.51879349 104.51626114 6.52586823 105.50517853 6.53315735 106.52406311 C6.56100233 109.6626659 6.62372323 112.79944232 6.6875 115.9375 C6.71259562 118.07354183 6.73540657 120.2096118 6.75585938 122.34570312 C6.81079594 127.56441844 6.89432167 132.78207871 7 138 C7.31670654 136.8648999 7.63341309 135.7297998 7.9597168 134.56030273 C8.39334406 133.03879327 8.8273659 131.51739623 9.26171875 129.99609375 C9.46825073 129.25178101 9.67478271 128.50746826 9.88757324 127.74060059 C13.33687916 115.75108682 19.63022687 105.23614521 28 96 C28.74894531 95.15824219 29.49789062 94.31648438 30.26953125 93.44921875 C39.18945691 83.95288433 50.13453977 76.77382972 63 74 C64.9992162 73.94401262 67.00124818 73.92935192 69 74 C69.7783458 95.10181941 63.69743429 113.80974759 49.875 130.0625 C37.80951397 142.94460098 22.90910382 150.76858917 7 158 C7 175.16 7 192.32 7 210 C9.475 201.585 9.475 201.585 12 193 C15.84386598 184.45807561 19.76159808 176.9826798 26 170 C26.60457031 169.31421875 27.20914063 168.6284375 27.83203125 167.921875 C37.35549473 157.75834168 51.34789008 149.90470424 65 147 C66.32 147 67.64 147 69 147 C70.12442259 169.36351605 62.06234605 187.8698232 47.8125 204.5625 C39.59131456 213.26728459 29.46839052 219.38742918 19 225 C18.28199219 225.38607422 17.56398438 225.77214844 16.82421875 226.16992188 C16.13972656 226.52634766 15.45523438 226.88277344 14.75 227.25 C14.14671875 227.56453125 13.5434375 227.8790625 12.921875 228.203125 C10.64850267 229.1457428 8.41994223 229.58276858 6 230 C6.01571045 230.77190674 6.0314209 231.54381348 6.04760742 232.33911133 C6.10989607 235.83016662 6.14897173 239.32110509 6.1875 242.8125 C6.21263672 244.02744141 6.23777344 245.24238281 6.26367188 246.49414062 C6.27333984 247.65751953 6.28300781 248.82089844 6.29296875 250.01953125 C6.3086792 251.09307861 6.32438965 252.16662598 6.34057617 253.27270508 C6 256 6 256 4.63793945 257.8503418 C2.29437458 259.49527353 0.79694527 259.41954179 -2 259 C-3.63793945 257.8503418 -3.63793945 257.8503418 -5 256 C-5.34057617 253.27270508 -5.34057617 253.27270508 -5.29296875 250.01953125 C-5.28330078 248.85615234 -5.27363281 247.69277344 -5.26367188 246.49414062 C-5.23853516 245.27919922 -5.21339844 244.06425781 -5.1875 242.8125 C-5.16719727 240.97268555 -5.16719727 240.97268555 -5.14648438 239.09570312 C-5.11108741 236.06336336 -5.0617076 233.03190004 -5 230 C-5.75289307 229.86585693 -6.50578613 229.73171387 -7.28149414 229.59350586 C-10.93756277 228.79531072 -14.11441876 227.22946589 -17.4375 225.5625 C-18.13399658 225.21413086 -18.83049316 224.86576172 -19.5480957 224.50683594 C-26.89026369 220.71722255 -33.46194523 216.02532837 -40 211 C-40.86367188 210.34773437 -41.72734375 209.69546875 -42.6171875 209.0234375 C-57.24224015 196.6041305 -65.346168 177.64001051 -68 159 C-68.2033035 154.98254598 -68.1986368 151.01687742 -68 147 C-48.49780099 149.66147657 -31.92488132 159.94405494 -20.03125 175.58984375 C-13.72757117 185.00389043 -9.73859585 195.04561659 -7 206 C-6.67 189.83 -6.34 173.66 -6 157 C-8.97 156.01 -11.94 155.02 -15 154 C-38.29067864 143.48322924 -55.4834561 126.9067118 -65 103 C-68.44916605 93.39160886 -68.32177644 84.05849329 -68 74 C-49.60747994 75.98043126 -35.38669953 85.83798694 -23.6484375 99.86328125 C-15.58173677 110.31940755 -11.12216402 121.54828961 -7 134 C-6.82557248 128.22012369 -6.69928807 122.44181381 -6.61547852 116.65991211 C-6.58050567 114.69772622 -6.53290891 112.73571966 -6.47192383 110.77416992 C-6.11355597 98.94200764 -5.94408218 90.41462446 -14 81 C-21.92817961 67.99874262 -22.62570246 52.65988672 -19.9375 38 C-16.67306464 24.60666239 -10.25360987 9.52573016 0 0 Z " fill="#FCFBFB" transform="translate(512,104)"/>
<path d="M0 0 C5.27260669 -0.08543576 9.03317403 0.52595952 13.125 4 C20.50437386 11.21831609 26.19102116 19.35895832 30 29 C30 30.32 30 31.64 30 33 C30.66 33 31.32 33 32 33 C32.10699219 32.12601563 32.21398437 31.25203125 32.32421875 30.3515625 C33.02354748 26.8832154 34.09878561 24.45534739 35.8125 21.375 C36.31394531 20.45460938 36.81539062 19.53421875 37.33203125 18.5859375 C39.0099868 15.98451696 40.63981421 14.00031588 43 12 C47.90478946 11.77705502 51.35554913 14.04437563 55.046875 17.03125 C63.45348175 25.5051096 65.95945584 38.4841271 67.54296875 49.921875 C67.66787958 52.86640904 67.66787958 52.86640904 69 54 C69.350625 53.195625 69.70125 52.39125 70.0625 51.5625 C72 49 72 49 75.25 47.8125 C79.69852182 48.03492609 81.25377018 48.90944646 84.37109375 51.95703125 C94.38292476 64.5138361 96.3305001 82.51716149 95 98 C93.72590116 107.91901741 90.50835346 117.07454662 83.0625 124.0625 C79.5927662 126.25763771 77.03212004 126.53823419 73 127 C72.68361572 126.50709473 72.36723145 126.01418945 72.04125977 125.50634766 C56.54487767 101.48681528 39.98561285 85.85645901 11.3828125 79.41015625 C6.256966 78.78866216 1.15822414 78.85702443 -4 78.875 C-5.67533813 78.86811157 -5.67533813 78.86811157 -7.38452148 78.86108398 C-13.40112505 78.86501669 -19.11476434 79.20172868 -25.0625 80.0625 C-28.74230488 80.37816954 -30.32611631 80.43845638 -33.4375 78.4140625 C-42.3356155 69.09066943 -46.52614831 57.08998436 -46.3125 44.41796875 C-45.75872023 38.36100254 -43.52134087 34.25185498 -39.3125 29.9375 C-35.48293603 27.69756636 -33.70047934 27.48141023 -29.42578125 28.20703125 C-25.71755295 29.41922182 -22.68969266 31.50795535 -19.44140625 33.6328125 C-15.90438406 35.61354492 -13.01460615 35.85131088 -9 36 C-9.03480469 35.05640625 -9.06960938 34.1128125 -9.10546875 33.140625 C-9.37263239 20.46943524 -8.03363509 10.29553235 0 0 Z " fill="#FCFCFC" transform="translate(791,516)"/>
<path d="M0 0 C1.80900907 1.80900907 1.47827883 4.73929223 1.75 7.1875 C2.63325526 13.7717665 4.46854948 19.46130631 6.82421875 25.6875 C11.26898415 38.20962976 11.601522 50.82277827 6 63 C1.95267608 69.65772811 -3.78942538 72.59647513 -11 75 C-18.67931154 75.80185582 -25.31500859 74.62514875 -31.6484375 70.11328125 C-38.41941785 64.42446638 -42.23514656 58.66235406 -44 50 C-44.98705004 37.0544591 -41.92852422 27.28857131 -34 17 C-28.25948631 10.72875957 -21.58866716 6.70207015 -14 3 C-13.33742188 2.65839844 -12.67484375 2.31679688 -11.9921875 1.96484375 C-7.90828827 -0.00385207 -4.49598361 -0.35967869 0 0 Z " fill="#FBFBFB" transform="translate(851,709)"/>
<path d="M0 0 C0.87720703 0.15017578 1.75441406 0.30035156 2.65820312 0.45507812 C20.88247092 3.63155679 20.88247092 3.63155679 26 6 C25.44267736 11.01590374 21.90813757 13.40777925 18.23046875 16.4765625 C5.75718604 25.77786318 -11.85794016 28.22798304 -27 29 C-28.26714844 29.07734375 -29.53429687 29.1546875 -30.83984375 29.234375 C-50.51083222 30.07433372 -71.13699119 24.23931877 -86 11 C-87.35099103 9.68456137 -88.69205669 8.35824882 -90 7 C-73.26426143 -9.73573857 -21.40284497 -3.71136485 0 0 Z " fill="#FAFAFA" transform="translate(537,789)"/>
<path d="M0 0 C13.12791982 7.17281515 19.77296789 20.04964363 24.1875 33.875 C24.84304259 36.45744052 25.44568692 39.02128592 26 41.625 C26.18191895 42.45290039 26.36383789 43.28080078 26.55126953 44.13378906 C29.68890717 59.06607978 30.35698028 73.67403649 30.3125 88.875 C30.30881409 90.20443634 30.30881409 90.20443634 30.30505371 91.56072998 C30.29241136 94.10839946 30.26881972 96.65561124 30.23828125 99.203125 C30.23071304 99.9646286 30.22314484 100.7261322 30.21534729 101.51071167 C30.1424924 105.6409723 29.79508674 109.57073788 29 113.625 C26.25036642 110.87536642 26.40488834 108.78766926 25.88671875 104.94921875 C25.6916662 103.55945242 25.49634277 102.16972409 25.30078125 100.7800293 C25.20104004 100.05036957 25.10129883 99.32070984 24.99853516 98.56893921 C22.49411424 80.4003385 19.85031773 62.37234449 12 45.625 C11.32339159 43.96234451 10.65377916 42.29676405 10 40.625 C9.17757812 40.61082031 8.35515625 40.59664062 7.5078125 40.58203125 C-2.392724 40.15902911 -9.88537357 38.2529141 -16.875 30.9375 C-22.44997913 23.89958309 -24.46585292 16.98251039 -24.3359375 8.0703125 C-23.97796229 5.46458596 -23.41689671 3.83327379 -22 1.625 C-14.52226524 -3.86884595 -8.38278528 -3.7493525 0 0 Z " fill="#262526" transform="translate(409,521.375)"/>
<path d="M0 0 C2.75719916 1.7953855 4.00402415 2.96024001 5.6875 5.75 C7.37362905 15.16095284 5.03893075 22.98985731 -0.3125 30.75 C-4.93325846 36.00552932 -10.58744142 40.40082114 -17.796875 40.93359375 C-18.66828125 40.97613281 -19.5396875 41.01867187 -20.4375 41.0625 C-24.37020021 41.37234911 -25.0867861 41.54882022 -28.1875 44.3125 C-29.33222368 45.96248055 -29.33222368 45.96248055 -30.3125 47.75 C-30.64217773 48.31356201 -30.97185547 48.87712402 -31.31152344 49.45776367 C-34.27147131 54.97062992 -35.55884701 60.37539038 -36.6875 66.5 C-36.88883545 67.54534912 -37.0901709 68.59069824 -37.29760742 69.66772461 C-40.2538156 85.30973169 -42.76516748 101.03727205 -45.3125 116.75 C-47.95968785 112.81660041 -47.65280664 108.53303086 -47.68359375 103.97265625 C-47.69466156 103.10195496 -47.70572937 102.23125366 -47.71713257 101.33416748 C-47.74422762 98.49343565 -47.75038684 95.65335581 -47.75 92.8125 C-47.75139984 91.8458139 -47.75279968 90.87912781 -47.75424194 89.88314819 C-47.73416174 73.03341633 -46.33399581 57.16924092 -42.3125 40.75 C-42.10431641 39.89937988 -41.89613281 39.04875977 -41.68164062 38.17236328 C-38.03160039 23.92362207 -31.97858491 10.23486604 -19.0625 2.3125 C-12.70603638 -1.30989464 -6.96864886 -2.62967881 0 0 Z " fill="#262426" transform="translate(620.3125,520.25)"/>
<path d="M0 0 C5.5213221 3.30714003 9.81983313 7.60474969 13.375 12.9375 C13.2578125 14.98046875 13.2578125 14.98046875 12.375 16.9375 C10.5546875 18.17578125 10.5546875 18.17578125 8.25 19.25 C4.8200417 21.00574727 2.32881062 22.75573816 -0.3125 25.5625 C-4.10917463 29.51414094 -6.96181644 31.75490139 -12.64453125 32.14453125 C-17.45365713 32.20498883 -21.670467 32.21253493 -26.3125 30.875 C-31.3968137 30.97093045 -33.71925188 34.15345875 -37.1953125 37.640625 C-42.79846939 42.9375 -42.79846939 42.9375 -46.625 42.9375 C-49.8275626 35.78938027 -49.50165576 28.75527816 -47.0625 21.375 C-43.20552862 11.93486026 -37.87070111 4.56817264 -28.625 -0.0625 C-20.16770602 -3.51958339 -8.40512028 -3.9310101 0 0 Z " fill="#242324" transform="translate(252.625,611.0625)"/>
<path d="M0 0 C14.2320153 3.37074046 28.15770091 18.23655137 36.015625 30.0234375 C39.07943548 35.06751573 41.30605798 39.0707486 42 45 C41.2471875 44.68546875 40.494375 44.3709375 39.71875 44.046875 C22.6842528 37.18346108 5.30913864 34.13870257 -13 33 C-12.55269531 32.35675781 -12.10539063 31.71351563 -11.64453125 31.05078125 C-5.2000584 21.41842418 -0.59439154 11.68970024 0 0 Z " fill="#F9F9F9" transform="translate(868,663)"/>
<path d="M0 0 C4.881441 2.26638332 7.70028068 5.13520912 10 10 C10.78549682 15.37824864 10.6984307 19.6031386 8.25 24.5 C4.80209219 28.33100868 2.00500299 30.68450055 -3.26953125 31.23828125 C-9.07276295 31.4076536 -12.51922775 31.06395622 -17 27 C-20.38048441 23.53881437 -22.32060376 20.46666159 -22.625 15.5625 C-22.32684364 10.57902936 -20.35598929 6.66258584 -17 3 C-11.6353482 -0.95529413 -6.43264116 -0.7768047 0 0 Z " fill="#252425" transform="translate(818,643)"/>
<path d="M0 0 C2.10674385 2.10674385 4.20541563 4.21462391 6.265625 6.3671875 C9.93357149 9.89889598 14.00567097 12.69252216 18.16015625 15.62109375 C22.26715736 19.06148395 24.72122263 21.96823271 25.4609375 27.359375 C25.41839844 29.03773438 25.41839844 29.03773438 25.375 30.75 C25.35566406 32.44382812 25.35566406 32.44382812 25.3359375 34.171875 C25 37 25 37 23 39 C22.71769531 38.50371094 22.43539063 38.00742187 22.14453125 37.49609375 C18.93544136 32.5365912 15.80665531 30.12603629 10.5 27.5 C3.8565124 24.20100787 0.28421851 20.56843701 -3 14 C-3.37937519 8.30937216 -3.00974609 5.01624348 0 0 Z " fill="#F6F6F6" transform="translate(451,715)"/>
<path d="M0 0 C3.34335968 3.19799622 4.17907596 5.11527034 4.3125 9.75 C4.23031316 16.0966502 1.92340101 19.12351121 -2.5625 23.5 C-5.37460862 25.75112531 -8.42561842 27.29733767 -11.625 28.9375 C-16.35060837 31.40610139 -18.47076868 33.38140368 -21 38 C-21.66 38 -22.32 38 -23 38 C-24.97660525 34.04678949 -24.42782786 29.30883775 -24 25 C-21.15657358 18.97193599 -15.93530003 15.18660019 -10.6875 11.27734375 C-6.13002108 7.86673041 -2.7969437 4.98585616 0 0 Z " fill="#F7F6F7" transform="translate(560,715)"/>
<path d="M0 0 C0.53625 0.226875 1.0725 0.45375 1.625 0.6875 C2.12 2.6675 2.12 2.6675 2.625 4.6875 C-17.22211669 14.94723912 -17.22211669 14.94723912 -24.375 16.6875 C-25.035 16.3575 -25.695 16.0275 -26.375 15.6875 C-26.045 14.6975 -25.715 13.7075 -25.375 12.6875 C-28.90911321 10.56703208 -32.31893835 10.15550711 -36.375 9.6875 C-36.375 9.3575 -36.375 9.0275 -36.375 8.6875 C-35.61058594 8.67332031 -34.84617188 8.65914062 -34.05859375 8.64453125 C-23.6978284 8.1832216 -14.34857994 5.74160789 -5.08203125 1.00390625 C-2.375 -0.3125 -2.375 -0.3125 0 0 Z " fill="#302D2E" transform="translate(173.375,767.3125)"/>
<path d="M0 0 C5.83218418 0.04703374 11.47165941 1.10429502 17.1875 2.1875 C17.1875 2.8475 17.1875 3.5075 17.1875 4.1875 C14.66702208 4.66859963 12.1461463 5.14742603 9.625 5.625 C8.56829102 5.82706055 8.56829102 5.82706055 7.49023438 6.03320312 C3.06722769 6.86888642 -1.35180209 7.58375245 -5.8125 8.1875 C-4.8005024 0.23609028 -4.8005024 0.23609028 0 0 Z " fill="#E4E4E4" transform="translate(870.8125,704.8125)"/>
<path d="M0 0 C0.33 0 0.66 0 1 0 C1 15.51 1 31.02 1 47 C0.67 47 0.34 47 0 47 C-0.72443458 44.56625904 -1.42982121 42.12959581 -2.125 39.6875 C-2.33253906 38.99720703 -2.54007812 38.30691406 -2.75390625 37.59570312 C-3.26947801 35.75564531 -3.64300884 33.8772811 -4 32 C-3.01 30.515 -3.01 30.515 -2 29 C-1.34 29 -0.68 29 0 29 C0 19.43 0 9.86 0 0 Z " fill="#3A3938" transform="translate(505,196)"/>
<path d="M0 0 C0.33 0 0.66 0 1 0 C1 12.54 1 25.08 1 38 C-1.12508244 34.81237635 -1.5020163 32.73487777 -2 29 C-1.34 29 -0.68 29 0 29 C0 19.43 0 9.86 0 0 Z " fill="#302E2E" transform="translate(505,275)"/>
<path d="M0 0 C0.66 0.33 1.32 0.66 2 1 C0.35 5.95 -1.3 10.9 -3 16 C-3.33 16 -3.66 16 -4 16 C-4.05386629 13.87527424 -4.09273071 11.75016348 -4.125 9.625 C-4.14820313 8.44164062 -4.17140625 7.25828125 -4.1953125 6.0390625 C-4 3 -4 3 -2 1 C-1.34 0.67 -0.68 0.34 0 0 Z " fill="#31302F" transform="translate(523,224)"/>
<path d="M0 0 C4.29 0.66 8.58 1.32 13 2 C10.14521674 3.90318884 8.58058692 4.4619099 5.3125 5.125 C4.50425781 5.29257812 3.69601562 5.46015625 2.86328125 5.6328125 C2.24839844 5.75398437 1.63351562 5.87515625 1 6 C0.67 4.02 0.34 2.04 0 0 Z " fill="#DBDADB" transform="translate(450,772)"/>
<path d="M0 0 C0.33 0 0.66 0 1 0 C1.10251672 5.12583611 1.03590199 9.94997778 0 15 C-2.58926331 12.41073669 -2.37398043 10.97294721 -2.625 7.375 C-2.69976562 6.37210938 -2.77453125 5.36921875 -2.8515625 4.3359375 C-2.90054687 3.56507813 -2.94953125 2.79421875 -3 2 C-2.01 2 -1.02 2 0 2 C0 1.34 0 0.68 0 0 Z " fill="#3B3A39" transform="translate(438,620)"/>
<path d="M0 0 C0.33 0 0.66 0 1 0 C1.66 3.96 2.32 7.92 3 12 C0.69 12 -1.62 12 -4 12 C-3.34 11.67 -2.68 11.34 -2 11 C-1.30906104 8.42048126 -1.30906104 8.42048126 -0.875 5.4375 C-0.70742187 4.42558594 -0.53984375 3.41367187 -0.3671875 2.37109375 C-0.24601562 1.58863281 -0.12484375 0.80617188 0 0 Z " fill="#DADAD9" transform="translate(114,764)"/>
<path d="M0 0 C0.66 0.33 1.32 0.66 2 1 C0.68 3.64 -0.64 6.28 -2 9 C-2.33 8.34 -2.66 7.68 -3 7 C-3.66 7 -4.32 7 -5 7 C-3.75023244 3.34683329 -3.32901247 2.21934164 0 0 Z " fill="#2F2D2E" transform="translate(663,705)"/>
<path d="M0 0 C0.99 0.33 1.98 0.66 3 1 C0.03 4.96 0.03 4.96 -3 9 C-3.66 8.67 -4.32 8.34 -5 8 C-4.75 6.125 -4.75 6.125 -4 4 C-1.9375 2.75 -1.9375 2.75 0 2 C0 1.34 0 0.68 0 0 Z " fill="#363535" transform="translate(539,197)"/>
<path d="M0 0 C0.33 0.66 0.66 1.32 1 2 C-0.54442235 5.63393495 -1.48567857 6.78822059 -5.1875 8.3125 C-6.5796875 8.6528125 -6.5796875 8.6528125 -8 9 C-7.23587913 7.87043002 -6.46340197 6.74651022 -5.6875 5.625 C-5.25824219 4.99851563 -4.82898438 4.37203125 -4.38671875 3.7265625 C-3 2 -3 2 0 0 Z " fill="#302F30" transform="translate(571,223)"/>
<path d="M0 0 C-0.33 0.99 -0.66 1.98 -1 3 C-6.75 2.25 -6.75 2.25 -9 0 C-5.67465243 -1.10844919 -3.37817425 -0.84454356 0 0 Z " fill="#DBDBDA" transform="translate(560,774)"/>
<path d="M0 0 C2.31 0 4.62 0 7 0 C7 0.33 7 0.66 7 1 C5.02 1 3.04 1 1 1 C1.99 1.66 2.98 2.32 4 3 C2.35 4.65 0.7 6.3 -1 8 C-0.67 5.36 -0.34 2.72 0 0 Z " fill="#414041" transform="translate(309,732)"/>
<path d="M0 0 C0.66 0.33 1.32 0.66 2 1 C0.35 3.64 -1.3 6.28 -3 9 C-3.66 7.68 -4.32 6.36 -5 5 C-3.35 3.35 -1.7 1.7 0 0 Z " fill="#2F2E2E" transform="translate(505,110)"/>
<path d="M0 0 C0.33 0 0.66 0 1 0 C1 4.62 1 9.24 1 14 C-1.12508244 10.81237635 -1.5020163 8.73487777 -2 5 C-1.34 5 -0.68 5 0 5 C0 3.35 0 1.7 0 0 Z " fill="#383735" transform="translate(505,299)"/>
<path d="M0 0 C4.95 0 9.9 0 15 0 C11 3 11 3 8.203125 2.85546875 C7.22859375 2.63503906 6.2540625 2.41460938 5.25 2.1875 C4.26515625 1.97480469 3.2803125 1.76210938 2.265625 1.54296875 C1.51796875 1.36378906 0.7703125 1.18460938 0 1 C0 0.67 0 0.34 0 0 Z " fill="#555454" transform="translate(137,776)"/>
<path d="M0 0 C1.9078584 3.1749094 2.1609041 5.10585211 1.625 8.75 C1.51414062 9.54921875 1.40328125 10.3484375 1.2890625 11.171875 C1.19367187 11.77515625 1.09828125 12.3784375 1 13 C-0.9078584 9.8250906 -1.1609041 7.89414789 -0.625 4.25 C-0.51414062 3.45078125 -0.40328125 2.6515625 -0.2890625 1.828125 C-0.19367187 1.22484375 -0.09828125 0.6215625 0 0 Z " fill="#414040" transform="translate(574,624)"/>
<path d="M0 0 C1.65 0 3.3 0 5 0 C5 0.33 5 0.66 5 1 C7.64 1.33 10.28 1.66 13 2 C13 2.33 13 2.66 13 3 C8.71 3 4.42 3 0 3 C0 2.01 0 1.02 0 0 Z " fill="#2C2A2B" transform="translate(281,436)"/>
<path d="M0 0 C2.97 0.33 5.94 0.66 9 1 C9 1.66 9 2.32 9 3 C5.625 3.1875 5.625 3.1875 2 3 C1.34 2.01 0.68 1.02 0 0 Z " fill="#D5D5D5" transform="translate(879,706)"/>
<path d="M0 0 C0.66 0.33 1.32 0.66 2 1 C1.34 2.98 0.68 4.96 0 7 C-0.99 6.34 -1.98 5.68 -3 5 C-2.67 4.01 -2.34 3.02 -2 2 C-1.34 2 -0.68 2 0 2 C0 1.34 0 0.68 0 0 Z " fill="#302F2F" transform="translate(653,723)"/>
<path d="M0 0 C0.99 0.33 1.98 0.66 3 1 C1.35 2.65 -0.3 4.3 -2 6 C-2.66 5.34 -3.32 4.68 -4 4 C-2.68 3.34 -1.36 2.68 0 2 C0 1.34 0 0.68 0 0 Z " fill="#3B3A3A" transform="translate(545,191)"/>
<path d="M0 0 C0.78375 0.04125 1.5675 0.0825 2.375 0.125 C1.75625 0.16625 1.1375 0.2075 0.5 0.25 C-0.20125 0.53875 -0.9025 0.8275 -1.625 1.125 C-2.9295656 4.12115946 -2.9295656 4.12115946 -3.625 7.125 C-3.955 7.125 -4.285 7.125 -4.625 7.125 C-4.75 4.75 -4.75 4.75 -4.625 2.125 C-2.625 0.125 -2.625 0.125 0 0 Z " fill="#5F5E5E" transform="translate(104.625,729.875)"/>
<path d="M0 0 C0.33 0 0.66 0 1 0 C1.25 3.3125 1.25 3.3125 1 7 C-1 8.9375 -1 8.9375 -3 10 C-2.39009109 6.44219804 -1.4216319 3.3171411 0 0 Z " fill="#1F1D1E" transform="translate(438,610)"/>
</svg>
