<?xml version="1.0" standalone="no"?>
<!DOCTYPE svg PUBLIC "-//W3C//DTD SVG 20010904//EN"
 "http://www.w3.org/TR/2001/REC-SVG-20010904/DTD/svg10.dtd">
<svg version="1.0" xmlns="http://www.w3.org/2000/svg"
 width="226.000000pt" height="247.000000pt" viewBox="0 0 226.000000 247.000000"
 preserveAspectRatio="xMidYMid meet">

<g transform="translate(0.000000,247.000000) scale(0.100000,-0.100000)"
fill="#000000" stroke="none">
<path d="M310 2444 c-135 -36 -248 -159 -279 -302 -32 -152 18 -355 114 -461
l38 -42 -56 -53 c-31 -30 -59 -66 -63 -80 -12 -49 3 -99 40 -133 69 -64 158
-55 335 34 l115 57 85 -3 c97 -2 200 16 292 54 34 14 64 23 66 21 3 -2 -3 -60
-12 -128 -23 -164 -31 -571 -16 -708 26 -216 98 -415 191 -522 54 -62 148
-123 227 -148 87 -27 238 -27 349 0 246 59 481 247 516 413 10 45 9 58 -7 90
-25 54 -78 87 -136 87 -50 0 -126 -34 -294 -133 -93 -55 -173 -87 -216 -87
-112 0 -204 137 -240 357 -50 310 -26 596 86 1004 40 146 43 186 15 222 -31
40 -119 78 -182 80 -68 1 -150 -36 -305 -139 -63 -42 -117 -74 -120 -71 -3 3
1 30 8 59 7 29 13 96 14 148 0 84 -4 103 -29 158 -32 69 -117 157 -186 192
-96 49 -241 63 -350 34z m202 -333 c30 -27 33 -35 32 -83 -1 -57 -33 -145 -63
-172 -16 -15 -21 -14 -59 14 -94 67 -115 204 -39 251 47 28 90 25 129 -10z"/>
</g>
</svg>
